<?xml version="1.0" standalone="no"?><!DOCTYPE svg PUBLIC "-//W3C//DTD SVG 1.1//EN" "http://www.w3.org/Graphics/SVG/1.1/DTD/svg11.dtd"><svg t="1611298937091" class="icon" viewBox="0 0 1024 1024" version="1.1" xmlns="http://www.w3.org/2000/svg" p-id="862" xmlns:xlink="http://www.w3.org/1999/xlink" width="200" height="200"><defs><style type="text/css"></style></defs><path d="M944.9 471.640625a141.946875 141.946875 0 0 0-105.046875-9.50625 139.640625 139.640625 0 0 0-56.784375-88.959375l-11.25-8.859375-9.534375 10.6875a117.675 117.675 0 0 0-22.21875 84.65625 108.590625 108.590625 0 0 0 21.20625 56.86875 164.925 164.925 0 0 1-30.54375 13.44375A204.271875 204.271875 0 0 1 667.75625 540.125H73.925l-1.265625 13.303125a248.428125 248.428125 0 0 0 20.896875 129.375l8.128125 16.115625 0.928125 1.51875c55.828125 92.19375 167.203125 139.95 274.05 139.95 206.8875 0 364.190625-98.746875 442.575-288.478125 52.36875 2.671875 105.946875-12.403125 131.56875-61.003125l6.525-12.403125-12.43125-6.975zM246.978125 711.6875a46.434375 46.434375 0 1 1 47.8125-46.434375 47.165625 47.165625 0 0 1-47.8125 46.434375z" fill="#1296db" p-id="863"></path><path d="M246.978125 640.7a24.440625 24.440625 0 1 0 25.14375 24.46875 24.80625 24.80625 0 0 0-25.14375-24.46875M118.25 427.625h84.375v84.375H118.25z m112.5 0h84.375v84.375h-84.375z m0-112.5h84.375v84.375h-84.375z m112.5 0h84.375v84.375h-84.375z m0 112.5h84.375v84.375h-84.375z m112.5 0h84.375v84.375h-84.375z m112.5 0h84.375v84.375h-84.375zM455.75 315.125h84.375v84.375h-84.375z m0-112.5h84.375v84.375h-84.375z" fill="#1296db" p-id="864"></path></svg>