<?xml version="1.0" standalone="no"?><!DOCTYPE svg PUBLIC "-//W3C//DTD SVG 1.1//EN" "http://www.w3.org/Graphics/SVG/1.1/DTD/svg11.dtd"><svg t="1611298947747" class="icon" viewBox="0 0 1024 1024" version="1.1" xmlns="http://www.w3.org/2000/svg" p-id="1003" xmlns:xlink="http://www.w3.org/1999/xlink" width="200" height="200"><defs><style type="text/css"></style></defs><path d="M444.65000029 600.12500029l0.26249942 0.37499942-37.4625 90.48750029a193.91249971 193.91249971 0 0 1-77.81249971-97.38749971l96.67500029-16.38750058 0.14999942 0.18750058a16.49999971 16.49999971 0 0 1 18.15000029 22.725z m-31.23750058-79.83750058a16.49999971 16.49999971 0 0 0 6.48750058-28.35l0.07499971-0.41249971L346.43750029 425.75000029a192.86250029 192.86250029 0 0 0-27.37500029 122.0625l94.275-27.18750058 0.07499971-0.3375z m42.93750058-74.25a16.49999971 16.49999971 0 0 0 26.2125-12.63749942l0.37499942-0.18750058 5.625-98.24999942a192.89999971 192.89999971 0 0 0-112.87499942 54.07499971l80.51249971 57.11249971 0.15000029-0.07499971z m28.49999942 103.12500058l27.1125 13.08749942 27.07500058-13.01249971 6.75-29.25-18.75000058-23.36249971h-30.15l-18.74999971 23.36249971 6.71249971 29.21249971z m56.25-116.06250058a16.49999971 16.49999971 0 0 0 26.25000029 12.6l0.29999971 0.1125 80.02500029-56.73749942a194.55000029 194.55000029 0 0 0-112.20000029-54.07500058l5.55000029 98.06250058 0.07499971 0.03749942z m407.85000029 223.875l-216.48750029 269.28750058a60.00000029 60.00000029 0 0 1-46.8 22.275l-347.2875 0.1125a60.00000029 60.00000029 0 0 1-46.76249971-22.35000058l-216.60000029-269.24999942a59.36249971 59.36249971 0 0 1-11.51249942-50.25000058L140.75 270.98749971c4.05-17.62499971 15.93749971-32.4 32.36249971-40.23749971L485.93750029 81.2375a60.22500029 60.22500029 0 0 1 51.93749971 0l312.93749971 149.43750029c16.425 7.83749971 28.31249971 22.65000029 32.36250058 40.23749971l77.32499942 335.8125c4.05 17.62499971-0.18749971 36.1125-11.54999971 50.24999971z m-123.33750029-77.13749971c-1.575-0.37500029-3.86250029-0.97499971-5.43749942-1.27500029-6.525-1.2375-11.8125-0.93750029-17.96250058-1.42499971-13.12499971-1.38750029-23.92499971-2.51250029-33.56249942-5.55000029-3.9375-1.50000029-6.75-6.1875-8.1-8.1l-7.5375-2.21249971a241.875 241.875 0 0 0-3.9375-87.45000029 242.4375 242.4375 0 0 0-35.1-81.1125c1.95000029-1.76249971 5.625-4.98750029 6.6375-5.9625 0.29999971-3.375 0.03750029-6.8625 3.52499942-10.575 7.38749971-6.93749971 16.65-12.67499971 27.86250058-19.575 5.32500029-3.15 10.2375-5.13749971 15.56249942-9.07499971 1.19999971-0.9 2.85000029-2.32499971 4.12500058-3.33749971 9-7.16249971 11.06250029-19.50000029 4.6125-27.60000029-6.45000029-8.1-18.97499971-8.84999971-27.93750029-1.6875-1.27500029 1.0125-2.99999971 2.32499971-4.1625 3.30000029-5.02499971 4.34999971-8.13750029 8.62499971-12.375 13.12499971-9.225 9.37500029-16.875 17.17499971-25.23750029 22.8375-3.63750029 2.09999971-8.96249971 1.38750029-11.3625 1.2375l-7.12499942 5.0625a245.43749971 245.43749971 0 0 0-155.475-75.11249971l-0.45-8.36250029c-2.43749971-2.32499971-5.36249971-4.31250029-6.11250029-9.37500029-0.82500029-10.05000029 0.5625-20.88749971 2.1375-33.93749971 0.86249971-6.11250029 2.28750029-11.17500029 2.54999971-17.81250029 0.03750029-1.50000029-0.03750029-3.7125-0.03749942-5.32499942 0-11.475-8.39999971-20.8125-18.75000058-20.8125-10.31249971 0-18.71250029 9.3375-18.71249942 20.8125l0.03749942 0.52499971c0 1.53749971-0.07499971 3.44999971 0 4.79999971 0.225 6.6375 1.64999971 11.7 2.51250029 17.81250029 1.575 13.05 2.925 23.88750029 2.09999971 33.975a20.43749971 20.43749971 0 0 1-6.075 9.675l-0.45 7.91250029a240.90000029 240.90000029 0 0 0-156.22499971 75.11249971 313.9875 313.9875 0 0 1-6.75-4.79999971c-3.375 0.45-6.75 1.50000029-11.1375-1.08750058-8.36250029-5.625-16.01250029-13.42500029-25.23750029-22.79999971-4.23749971-4.5-7.3125-8.775-12.33749971-13.08750029a100.9125 100.9125 0 0 0-4.1625-3.29999942 22.275 22.275 0 0 0-13.05-4.95 18.03750029 18.03750029 0 0 0-14.92499971 6.59999971c-6.45000029 8.1-4.3875 20.475 4.6125 27.63749971l0.26249942 0.18750058 3.90000058 3.11249971c5.32500029 3.9375 10.19999971 5.9625 15.525 9.07499971 11.21249971 6.93749971 20.475 12.67499971 27.86249971 19.575 2.85000029 3.07500029 3.375 8.47500029 3.75000029 10.8l5.99999942 5.36250058a242.325 242.325 0 0 0-38.25 168.975l-7.79999942 2.25c-2.06250029 2.7-4.98750029 6.90000029-8.06250058 8.13749942-9.63749971 3.0375-20.475 4.12499971-33.56249942 5.5125-6.14999971 0.52499971-11.43749971 0.225-18 1.4625-1.38750029 0.26250029-3.375 0.74999971-4.98750029 1.125l-0.15000029 0.07500058-0.26249942 0.07499971c-11.06250029 2.66249971-18.15000029 12.825-15.8625 22.79999971 2.28750029 10.0125 13.08750029 16.0875 24.1875 13.68750058l0.26249942-0.03750029 0.37500029-0.1125 4.8375-1.08749971c6.37499971-1.72500029 11.025-4.23749971 16.80000029-6.45000029 12.375-4.42500029 22.65000029-8.13750029 32.625-9.60000029 4.20000029-0.3375 8.62499971 2.5875 10.8 3.78750058l8.13749942-1.38750029a243.74999971 243.74999971 0 0 0 108 134.84999971l-3.375 8.17500058c1.2375 3.15 2.5875 7.46250029 1.65000058 10.575-3.63750029 9.45-9.86249971 19.38750029-16.95000058 30.4875-3.41250029 5.10000029-6.93749971 9.07499971-10.04999942 14.9625-0.74999971 1.38750029-1.6875 3.56249971-2.40000029 5.02499971-4.79999971 10.31249971-1.27500029 22.1625 7.9875 26.62499971 9.29999971 4.5 20.85000029-0.26250029 25.875-10.575v-0.07499971c0.74999971-1.4625 1.72500029-3.375 2.32499971-4.76250029 2.62500029-6.075 3.52500029-11.28750029 5.4-17.17499971 4.95-12.44999971 7.68750029-25.49999971 14.5125-33.6375 1.87499971-2.25 4.87500029-3.07500029 8.06250058-3.9375l4.23749971-7.68750029a241.9875 241.9875 0 0 0 172.83750029 0.45l3.97499942 7.2c3.22499971 1.05000029 6.75 1.575 9.60000029 5.81250058 5.10000029 8.70000029 8.58750029 19.0125 12.825 31.5 1.87499971 5.85 2.77499971 11.06250029 5.43750029 17.13749942 0.60000029 1.38750029 1.61250029 3.375 2.32499971 4.8375 4.98750029 10.35 16.57500029 15.075 25.875 10.575 9.26250029-4.42500029 12.78749971-16.3125 7.9875-26.62499971-0.74999971-1.4625-1.6875-3.6-2.43749971-5.02499971-3.11249971-5.85-6.6375-9.7875-10.05000029-14.92500058-7.12500029-11.09999971-12.97500029-20.28750029-16.61249971-29.73749942-1.50000029-4.87500029 0.26250029-7.875 1.42499971-11.025-0.675-0.82500029-2.21249971-5.4-3.11249971-7.57500029a243.71250029 243.71250029 0 0 0 108-135.82500029c2.40000029 0.37500029 6.59999971 1.125 7.9875 1.42500058 2.8125-1.87499971 5.4-4.275 10.49999942-3.90000058 9.97499971 1.4625 20.25 5.175 32.625 9.60000029 5.77500029 2.25 10.38750029 4.79999971 16.80000029 6.48749971 1.35 0.37500029 3.30000029 0.71250029 4.87500029 1.05000029l0.3375 0.1125 0.26249942 0.03750029c11.1375 2.40000029 21.89999971-3.67499971 24.1875-13.68750058 2.25-9.97499971-4.79999971-20.1375-15.8625-22.79999971zM676.99999971 425.78749971l-73.125 65.475v0.18750058a16.49999971 16.49999971 0 0 0 6.48750058 28.38749942l0.1125 0.37500029 94.725 27.29999971a194.9625 194.9625 0 0 0-4.05-62.775A195.3 195.3 0 0 0 676.99999971 425.75000029z m-150.48749971 199.6875a16.38749971 16.38749971 0 0 0-15.14999971-8.69999942 16.49999971 16.49999971 0 0 0-13.95 8.73749971h-0.07500058l-47.54999971 85.95a193.65000029 193.65000029 0 0 0 124.72499971 0.1125l-47.62499942-86.10000029h-0.37500029z m70.80000029-48.4875a16.49999971 16.49999971 0 0 0-10.125 1.35 16.49999971 16.49999971 0 0 0-8.02500029 21.45000058l-0.1125 0.14999942 37.87499971 91.42500058a193.12499971 193.12499971 0 0 0 78.03750058-98.06250058l-97.50000058-16.49999971-0.14999942 0.18749971z" fill="#0092ff" p-id="1004"></path></svg>