<?xml version="1.0" standalone="no"?><!DOCTYPE svg PUBLIC "-//W3C//DTD SVG 1.1//EN" "http://www.w3.org/Graphics/SVG/1.1/DTD/svg11.dtd"><svg t="1611298509504" class="icon" viewBox="0 0 1024 1024" version="1.1" xmlns="http://www.w3.org/2000/svg" p-id="1303" xmlns:xlink="http://www.w3.org/1999/xlink" width="200" height="200"><defs><style type="text/css"></style></defs><path d="M524.375 217.90625c-8.0625 5.25-14.25 12.9375-17.71875 21.9375-3.5625 11.625-3 24 1.40625 35.34375 3.65625 11.90625 10.96875 22.3125 20.8125 29.8125 5.0625 3.5625 10.875 5.8125 17.0625 6.5625 6.1875 0.75 12.375-0.28125 17.90625-3.09375 6.5625-3.65625 11.8125-9.375 14.90625-16.21875 3-6.9375 4.6875-14.34375 4.875-21.84375 0.65625-9.5625-0.5625-19.125-3.5625-28.21875-3.28125-9.9375-9.65625-18.46875-18.28125-24.28125-4.40625-2.8125-9.28125-4.6875-14.4375-5.4375-5.15625-0.75-10.40625-0.1875-15.28125 1.6875-2.71875 1.125-5.34375 2.53125-7.78125 4.21875" fill="#FFFFFF" p-id="1304"></path><path d="M791.5625 600.59375c-4.78125-26.53125-12.28125-52.5-22.3125-77.4375-6.84375-18.5625-16.125-36.1875-27.65625-52.3125-11.625-15.46875-26.34375-28.5-37.6875-44.15625-6-8.15625-11.0625-17.25-17.34375-25.21875-2.53125-5.25-4.96875-10.5-7.40625-15.75-7.5-16.40625-14.34375-33.1875-23.25-48.75-1.40625-2.4375-2.90625-4.875-4.3125-7.21875-1.125-15-2.71875-30-3.5625-45 0.65625-30.09375-1.875-60.28125-7.59375-89.90625-3.9375-14.15625-9.9375-27.75-17.8125-40.125-9.1875-14.625-21-27.375-34.875-37.59375-22.59375-16.03125-49.59375-24.65625-77.25-24.75-20.34375-0.46875-40.5 4.125-58.59375 13.5-19.03125 10.40625-34.40625 26.4375-44.0625 45.84375-9 19.59375-13.78125 40.78125-14.0625 62.34375-0.75 21.1875 1.21875 42.1875 2.0625 63.375 0.84375 21.9375 0.375 43.96875 2.15625 65.90625 0.5625 7.03125 1.40625 14.0625 1.40625 21.1875 0 3.5625-0.1875 7.125-0.28125 10.59375l-0.28125 0.75c-9.5625 16.21875-20.15625 31.875-31.6875 46.78125-8.0625 10.21875-16.125 20.34375-24.28125 30.375-10.59375 11.90625-19.59375 25.125-26.71875 39.375-4.78125 12.375-8.625 25.125-11.625 38.0625l-0.28125 1.03125c-4.5 14.90625-10.125 29.34375-16.875 43.3125-0.65625 1.3125-1.3125 2.71875-1.875 3.9375-4.03125 8.34375-8.25 16.6875-12.65625 24.84375l-5.0625 9.46875c-3.1875 5.71875-6 11.625-8.4375 17.625-1.40625 3.65625-2.53125 7.40625-3.1875 11.25-1.21875 8.15625-0.65625 16.40625 1.5 24.28125 0.46875 1.96875 1.125 3.9375 1.78125 5.90625 2.0625 5.8125 4.5 11.53125 7.40625 16.96875 1.3125 2.53125 2.71875 4.96875 4.03125 7.5l1.21875 1.78125c1.3125 2.34375 2.71875 4.6875 4.125 6.9375l0.1875 0.28125c1.59375 2.625 3.375 5.15625 5.0625 7.6875l0.28125 0.375c1.78125 2.4375 3.5625 4.96875 5.4375 7.40625 6.9375 27.09375 19.6875 52.3125 37.21875 74.0625-2.71875 4.78125-5.15625 9.46875-7.875 14.15625-9.5625 13.875-17.4375 28.78125-23.53125 44.4375-2.53125 8.0625-3.1875 16.59375-1.78125 24.9375 1.3125 8.4375 5.625 16.03125 12.1875 21.5625 4.40625 3.375 9.46875 5.71875 14.8125 6.84375 5.34375 1.125 10.875 1.6875 16.40625 1.40625 20.8125-1.59375 41.4375-5.71875 61.3125-12.09375 12-3.1875 24-6 36.1875-8.4375 12.65625-2.90625 25.5-4.6875 38.4375-5.25 3.1875 0.09375 6.375-0.09375 9.46875-0.28125 8.8125 0.9375 17.625 1.3125 26.53125 0.9375l3.28125-0.1875c2.25 0.28125 4.59375 0.375 6.9375 0.5625 15.5625 0.84375 31.03125 2.4375 46.40625 4.78125 13.5 2.0625 27 4.6875 40.3125 7.96875 20.53125 6.1875 41.625 10.3125 63.09375 12.09375 5.625 0.28125 11.25-0.1875 16.875-1.3125 5.53125-1.125 10.78125-3.5625 15.28125-6.9375 6.5625-5.4375 10.875-13.03125 12.28125-21.46875 1.40625-8.34375 0.75-16.875-1.78125-24.9375-6.1875-15.65625-14.15625-30.5625-23.90625-44.34375-3.375-5.71875-6.5625-11.625-9.9375-17.34375 14.53125-16.21875 27.375-34.03125 38.15625-52.96875 6.5625 0.375 13.03125-0.375 19.3125-2.4375 16.40625-5.53125 30.65625-16.21875 40.59375-30.46875 3-4.21875 5.34375-8.90625 6.75-13.875 6.46875-10.03125 10.875-21.28125 12.9375-33.09375 3-19.5 2.53125-39.46875-1.40625-58.78125h-0.1875z m0 0" fill="#020204" p-id="1305"></path><path d="M431 335c-2.90625 3.75-4.96875 8.15625-6 12.75-1.03125 4.59375-1.6875 9.375-1.78125 14.0625 0.28125 9.46875-0.46875 18.9375-2.34375 28.21875-3.28125 9.65625-8.25 18.5625-14.625 26.53125-10.96875 13.78125-19.59375 29.25-25.5 45.75-3 10.21875-4.03125 20.90625-2.90625 31.59375-11.34375 16.78125-21.1875 34.59375-29.34375 53.15625-12.5625 28.03125-20.625 57.9375-23.90625 88.5-4.03125 37.59375 1.5 75.5625 15.9375 110.4375 10.59375 25.125 26.71875 47.625 47.15625 65.71875 10.5 9.09375 22.03125 16.78125 34.40625 22.875 43.78125 21.375 95.0625 20.90625 138.375-1.3125 21.65625-12.65625 41.4375-28.3125 58.6875-46.40625 11.15625-10.125 21.09375-21.46875 29.8125-33.84375 14.53125-25.21875 23.0625-53.53125 24.84375-82.59375 9-50.25 3.46875-102-15.84375-149.25-7.59375-15.75-17.625-30.1875-29.8125-42.75a236.71875 236.71875 0 0 0-18.9375-63.75c-6.75-14.53125-14.90625-28.40625-21.1875-43.3125-2.53125-6.09375-4.78125-12.28125-7.59375-18.1875-2.71875-6-6.46875-11.53125-11.0625-16.21875-4.96875-4.59375-10.875-8.0625-17.34375-10.03125-6.46875-2.0625-13.125-3.1875-19.875-3.375-13.5-0.65625-27.09375 1.03125-40.40625 0.5625-10.78125-0.46875-21.375-2.34375-32.15625-1.6875-5.34375 0.28125-10.6875 1.3125-15.65625 3.28125-5.0625 1.96875-9.46875 5.15625-12.9375 9.375m4.3125-117.28125c-5.0625 0.375-9.84375 2.53125-13.5 6-3.65625 3.46875-6.375 7.875-7.875 12.65625-2.53125 9.75-3.1875 19.96875-1.78125 30 0.1875 9.09375 1.78125 18.1875 4.78125 26.8125 1.6875 4.21875 4.125 8.15625 7.3125 11.4375 3.1875 3.28125 7.21875 5.71875 11.625 6.84375 4.21875 1.03125 8.625 0.84375 12.65625-0.46875 4.03125-1.3125 7.78125-3.5625 10.78125-6.5625 4.40625-4.5 7.59375-10.03125 9.1875-16.03125 1.59375-6 2.34375-12.28125 2.15625-18.5625 0-7.78125-1.21875-15.5625-3.5625-23.0625s-6.375-14.34375-11.8125-20.0625c-2.625-2.71875-5.625-5.0625-9-6.75-3.46875-1.59375-7.21875-2.4375-10.96875-2.25m89.0625 0c-8.0625 5.25-14.25 12.9375-17.71875 21.9375-3.5625 11.625-3 24 1.40625 35.34375 3.65625 11.90625 10.96875 22.3125 20.8125 29.8125 5.0625 3.5625 10.875 5.8125 17.0625 6.5625 6.1875 0.75 12.375-0.28125 17.90625-3.09375 6.5625-3.65625 11.8125-9.375 14.90625-16.21875 3-6.9375 4.6875-14.34375 4.875-21.84375 0.65625-9.5625-0.5625-19.125-3.5625-28.21875-3.28125-9.9375-9.65625-18.46875-18.28125-24.28125-4.40625-2.8125-9.28125-4.6875-14.4375-5.4375-5.15625-0.75-10.40625-0.1875-15.28125 1.6875-2.71875 1.125-5.34375 2.53125-7.78125 4.21875" fill="#FFFFFF" p-id="1306"></path><path d="M542.46875 241.625c-3 0.1875-5.8125 1.125-8.34375 2.71875s-4.6875 3.75-6.375 6.1875c-3.1875 4.96875-4.96875 10.78125-5.0625 16.78125-0.28125 4.40625 0.375 8.90625 1.78125 13.125s4.03125 7.96875 7.40625 10.78125c3.5625 2.90625 7.875 4.59375 12.46875 4.875 4.59375 0.1875 9.09375-1.03125 12.84375-3.65625 3-2.15625 5.4375-4.875 7.125-8.15625 1.6875-3.1875 2.71875-6.75 3.1875-10.3125 0.9375-6.375-0.1875-12.9375-3-18.65625-2.90625-5.8125-7.875-10.21875-13.875-12.5625-2.625-1.03125-5.34375-1.40625-8.15625-1.3125" fill="#020204" p-id="1307"></path><path d="M435.3125 217.90625c-5.0625 0.375-9.84375 2.53125-13.5 6-3.65625 3.46875-6.375 7.875-7.875 12.65625-2.53125 9.75-3.1875 19.96875-1.78125 30 0.1875 9.09375 1.78125 18.1875 4.78125 26.8125 1.6875 4.3125 4.125 8.15625 7.3125 11.4375 3.1875 3.28125 7.21875 5.71875 11.625 6.84375 4.21875 1.03125 8.625 0.84375 12.65625-0.46875 4.03125-1.3125 7.78125-3.5625 10.78125-6.5625 4.40625-4.5 7.59375-10.03125 9.1875-16.03125 1.59375-6 2.34375-12.28125 2.15625-18.5625 0-7.78125-1.21875-15.5625-3.5625-23.0625s-6.375-14.34375-11.8125-20.0625c-2.625-2.71875-5.625-5.0625-9-6.75-3.46875-1.59375-7.21875-2.4375-10.96875-2.25" fill="#FFFFFF" p-id="1308"></path><path d="M423.21875 259.625c-1.21875 6.28125-0.9375 12.84375 1.03125 18.9375 1.5 4.03125 3.75 7.6875 6.75 10.78125 1.875 2.0625 4.03125 3.84375 6.5625 5.0625 2.53125 1.3125 5.34375 1.6875 8.15625 1.03125 2.53125-0.65625 4.6875-2.15625 6.28125-4.21875 1.59375-2.0625 2.71875-4.40625 3.46875-6.84375 2.15625-7.3125 1.96875-15.09375-0.375-22.40625-1.5-5.34375-4.40625-10.21875-8.53125-13.875-1.96875-1.6875-4.40625-3-6.9375-3.65625-2.625-0.65625-5.34375-0.46875-7.875 0.65625-2.625 1.3125-4.78125 3.46875-6.09375 6.09375-1.3125 2.625-2.15625 5.4375-2.53125 8.34375" fill="#020204" p-id="1309"></path><path d="M411.3125 338.46875c0.1875 0.84375 0.46875 1.6875 0.9375 2.34375 0.84375 1.3125 1.875 2.34375 3.1875 3.1875 1.21875 0.84375 2.4375 1.59375 3.65625 2.34375 6.46875 4.40625 12.1875 9.84375 16.78125 16.21875 5.625 8.8125 12.65625 16.6875 20.625 23.4375 6.09375 4.21875 13.21875 6.75 20.625 7.40625 8.625 0.65625 17.34375-0.375 25.6875-3 7.6875-2.25 15.09375-5.4375 22.03125-9.65625 11.90625-9.5625 24.65625-18 38.15625-25.03125 3.1875-1.125 6.375-1.96875 9.375-3.375 3.09375-1.3125 5.71875-3.5625 7.3125-6.5625 1.03125-3 1.6875-6.1875 1.78125-9.375 0.46875-3.375 1.59375-6.65625 2.15625-10.03125 0.75-3.375 0.46875-6.84375-0.75-10.125-1.3125-2.53125-3.375-4.59375-5.90625-5.90625-2.53125-1.21875-5.34375-1.96875-8.15625-2.0625-5.71875 0.1875-11.34375 0.75-16.875 1.6875-7.5 0.65625-15-0.28125-22.5 0-9.28125 0.28125-18.5625 2.34375-27.9375 2.71875-10.6875 0.5625-21.28125-1.125-31.96875-1.59375-4.59375-0.28125-9.28125-0.09375-13.875 0.65625-4.59375 0.65625-9 2.34375-12.84375 4.96875-3.5625 2.8125-6.84375 5.8125-10.03125 9-1.6875 1.5-3.5625 2.8125-5.53125 3.84375-2.0625 1.03125-4.21875 1.59375-6.5625 1.5-1.125-0.1875-2.34375-0.1875-3.46875 0-0.65625 0.28125-1.3125 0.65625-1.78125 1.125l-1.40625 1.6875c-0.9375 1.40625-1.78125 2.90625-2.4375 4.40625" fill="#D99A03" p-id="1310"></path><path d="M434.84375 314.84375c-3.75 2.25-7.40625 4.6875-11.0625 7.21875-1.96875 1.21875-3.5625 2.8125-4.78125 4.78125-0.65625 1.5-0.9375 3.09375-0.84375 4.6875 0.09375 1.59375 0.09375 3.1875 0 4.78125-0.09375 1.03125-0.46875 2.15625-0.46875 3.28125 0 0.5625 0 1.125 0.1875 1.59375 0.1875 0.5625 0.375 1.03125 0.75 1.40625 0.46875 0.46875 1.125 0.84375 1.875 1.03125 0.65625 0.1875 1.40625 0.28125 2.15625 0.46875 3.28125 0.9375 6.28125 2.71875 8.71875 5.0625 2.53125 2.25 4.78125 4.875 7.5 7.03125 7.5 5.625 16.59375 8.53125 25.875 8.4375 9.28125-0.1875 18.46875-1.5 27.375-3.84375 7.03125-1.5 13.96875-3.375 20.71875-5.71875 10.5-3.9375 20.15625-9.65625 28.5-17.0625 3.65625-3.5625 7.5-6.75 11.625-9.65625 3.75-2.34375 8.15625-3.9375 11.90625-6.1875 0.375-0.1875 0.65625-0.46875 1.03125-0.65625 0.28125-0.28125 0.5625-0.5625 0.75-0.9375 0.28125-0.65625 0.28125-1.40625 0-2.0625-0.1875-0.65625-0.46875-1.21875-0.84375-1.6875-0.46875-0.5625-1.03125-1.125-1.59375-1.59375-4.3125-3.1875-9.46875-4.96875-14.8125-5.15625-5.4375-0.375-10.59375 0-15.84375-1.03125-4.875-1.03125-9.65625-2.4375-14.34375-4.125-4.96875-1.59375-10.03125-2.8125-15.28125-3.65625-12.1875-1.96875-24.5625-1.6875-36.65625 0.9375-11.34375 2.53125-22.3125 6.84375-32.4375 12.65625" fill="#604405" p-id="1311"></path><path d="M433.625 302.09375c-5.4375 3.65625-10.3125 8.15625-14.53125 13.21875-2.4375 2.8125-4.40625 6.09375-5.71875 9.65625-0.84375 2.8125-1.40625 5.71875-1.875 8.625-0.28125 1.03125-0.46875 2.15625-0.46875 3.28125 0 0.5625 0.09375 1.125 0.28125 1.59375 0.1875 0.5625 0.46875 1.03125 0.84375 1.40625 0.65625 0.65625 1.5 1.03125 2.4375 1.21875 0.84375 0.1875 1.78125 0.1875 2.71875 0.28125 4.125 0.65625 7.96875 2.34375 11.34375 4.78125 3.375 2.34375 6.5625 5.0625 10.03125 7.3125 7.875 4.6875 16.875 7.21875 26.0625 7.40625 9.1875 0.1875 18.28125-0.75 27.1875-2.71875 7.125-1.3125 14.15625-3.28125 21-5.90625 10.21875-4.40625 19.78125-10.125 28.5-17.0625 4.03125-3 7.96875-6.1875 11.625-9.65625 1.21875-1.21875 2.4375-2.4375 3.75-3.5625 1.3125-1.125 2.8125-1.96875 4.40625-2.53125 2.53125-0.65625 5.15625-0.75 7.78125-0.09375 1.875 0.46875 3.84375 0.65625 5.8125 0.65625 1.03125 0 1.96875-0.1875 2.90625-0.46875 0.9375-0.375 1.78125-0.9375 2.34375-1.6875 0.84375-1.03125 1.21875-2.25 1.21875-3.5625s-0.375-2.53125-1.03125-3.65625c-1.40625-2.15625-3.5625-3.84375-5.90625-4.78125-3.28125-1.3125-6.65625-2.34375-10.125-3-10.59375-2.53125-20.90625-6.28125-30.65625-11.15625-4.875-2.4375-9.46875-5.0625-14.34375-7.59375-4.875-2.71875-9.9375-5.0625-15.1875-6.75-12.09375-3.28125-24.9375-2.71875-36.65625 1.6875-13.125 4.59375-24.84375 12.5625-33.84375 23.15625" fill="#F5BD0C" p-id="1312"></path><path d="M494.65625 287.1875c0.65625 2.15625 4.03125 1.78125 6 2.71875 1.96875 0.9375 3.09375 2.71875 4.96875 2.90625 1.96875 0.1875 4.6875-0.65625 4.96875-2.4375 0.375-2.4375-3.1875-3.9375-5.4375-4.78125-3-1.40625-6.375-1.5-9.375-0.1875-0.65625 0.28125-1.3125 1.125-1.125 1.78125z m-32.25-1.125c-2.53125-0.84375-6.65625 3.5625-5.4375 5.90625 0.375 0.65625 1.5 1.40625 2.25 1.03125 0.75-0.375 2.15625-2.90625 3.375-3.75 0.9375-0.75 0.75-2.90625-0.1875-3.1875z m0 0" fill="#CD8907" p-id="1313"></path><path d="M864.21875 809.9375c-1.875 4.875-4.59375 9.375-7.96875 13.40625-7.875 8.4375-17.4375 15.1875-27.9375 19.875-17.8125 8.25-35.15625 17.4375-52.03125 27.46875-10.96875 7.3125-21.1875 15.5625-30.65625 24.75-7.78125 8.15625-16.125 15.65625-24.9375 22.6875-9.1875 6.75-19.78125 11.34375-31.03125 13.125-13.78125 1.78125-27.75-0.375-40.40625-6.09375-9.09375-3.46875-16.96875-9.5625-22.5-17.625-4.6875-8.625-6.84375-18.28125-6.375-28.03125 0.5625-17.15625 2.625-34.21875 6.1875-51.09375 2.4375-14.0625 4.875-28.125 6.375-42.28125 2.625-25.875 2.90625-51.84375 0.9375-77.71875-0.46875-4.3125-0.46875-8.71875 0-13.03125 0.5625-8.8125 7.96875-15.5625 16.875-15.46875 4.03125-0.09375 8.0625 0.28125 12 1.03125 9.375 1.125 18.75 2.71875 27.9375 4.875 5.71875 1.5 11.4375 3.5625 17.15625 5.15625 9.5625 2.8125 19.6875 3.65625 29.625 2.71875 10.40625-2.4375 21-4.03125 31.6875-4.96875 4.40625 0.1875 8.8125 0.9375 12.9375 2.25 4.3125 1.21875 8.34375 3.375 11.625 6.46875 2.34375 2.53125 4.21875 5.4375 5.4375 8.625 1.78125 4.78125 2.90625 9.75 3.28125 14.8125 0.1875 4.5 0.5625 9 1.125 13.5 1.59375 7.21875 5.0625 13.96875 9.9375 19.59375 4.96875 5.4375 10.3125 10.5 16.125 15 5.53125 4.875 11.34375 9.375 17.4375 13.5 2.90625 1.96875 5.8125 3.75 8.53125 5.90625 2.8125 2.0625 5.15625 4.6875 6.9375 7.6875 2.25 4.125 3 8.90625 1.875 13.5" fill="#F5BD0C" p-id="1314"></path><path d="M864.21875 809.9375c-1.875 4.875-4.59375 9.375-7.96875 13.40625-7.875 8.4375-17.4375 15.1875-27.9375 19.875-17.8125 8.25-35.15625 17.4375-52.03125 27.46875-10.96875 7.3125-21.1875 15.5625-30.65625 24.75-7.78125 8.15625-16.125 15.65625-24.9375 22.6875-9.1875 6.75-19.78125 11.34375-31.03125 13.125-13.78125 1.78125-27.75-0.375-40.40625-6.09375-9.09375-3.46875-16.96875-9.5625-22.5-17.625-4.6875-8.625-6.84375-18.28125-6.375-28.03125 0.5625-17.15625 2.625-34.21875 6.1875-51.09375 2.4375-14.0625 4.875-28.125 6.375-42.28125 2.625-25.875 2.90625-51.84375 0.9375-77.71875-0.46875-4.3125-0.46875-8.71875 0-13.03125 0.5625-8.8125 7.96875-15.5625 16.875-15.46875 4.03125-0.09375 8.0625 0.28125 12 1.03125 9.375 1.125 18.75 2.71875 27.9375 4.875 5.71875 1.5 11.4375 3.5625 17.15625 5.15625 9.5625 2.8125 19.6875 3.65625 29.625 2.71875 10.40625-2.4375 21-4.03125 31.6875-4.96875 4.40625 0.1875 8.8125 0.9375 12.9375 2.25 4.3125 1.21875 8.34375 3.375 11.625 6.46875 2.34375 2.53125 4.21875 5.4375 5.4375 8.625 1.78125 4.78125 2.90625 9.75 3.28125 14.8125 0.1875 4.5 0.5625 9 1.125 13.5 1.59375 7.21875 5.0625 13.96875 9.9375 19.59375 4.96875 5.4375 10.3125 10.5 16.125 15 5.53125 4.875 11.34375 9.375 17.4375 13.5 2.90625 1.96875 5.8125 3.75 8.53125 5.90625 2.8125 2.0625 5.15625 4.6875 6.9375 7.6875 2.25 4.125 3 8.90625 1.875 13.5M275.1875 666.03125c4.59375-1.78125 9.5625-2.25 14.4375-1.3125 4.875 0.9375 9.46875 2.90625 13.5 5.71875 7.78125 5.90625 14.53125 13.21875 19.875 21.375 13.21875 18.1875 25.875 36.75 37.40625 56.0625 9.375 15.65625 17.90625 31.78125 28.6875 46.5 7.03125 9.5625 15 18.46875 22.125 28.03125 7.40625 9.375 13.03125 20.0625 16.5 31.40625 4.125 15.09375 2.4375 31.125-4.59375 45.09375-5.0625 9.75-12.65625 17.90625-21.9375 23.53125-9.375 5.625-20.15625 8.4375-31.125 8.15625-17.25-2.34375-33.9375-7.59375-49.3125-15.5625-32.71875-13.03125-68.25-17.15625-102-27.28125-10.40625-3.09375-20.53125-6.84375-31.03125-9.65625-4.6875-1.125-9.28125-2.53125-13.78125-4.40625-4.40625-1.875-8.25-5.0625-10.78125-9.09375-1.875-3.28125-2.8125-7.03125-2.71875-10.78125 0.09375-3.75 0.84375-7.40625 2.15625-10.78125 2.53125-7.03125 6.65625-13.3125 9.375-20.25 4.125-11.4375 5.71875-23.71875 4.6875-35.8125-0.5625-12.09375-2.71875-24.1875-3.375-36.28125-0.5625-5.4375-0.375-10.875 0.5625-16.21875 1.40625-10.6875 9.75-19.21875 20.53125-20.8125 4.96875-0.84375 9.9375-1.21875 14.90625-0.9375 4.96875 0.28125 10.03125 0.28125 15 0 4.96875-0.28125 9.9375-1.6875 14.34375-4.03125 4.03125-2.4375 7.59375-5.8125 10.3125-9.75 2.71875-3.9375 5.15625-7.96875 7.40625-12.1875 2.25-4.21875 4.78125-8.15625 7.78125-11.90625 2.8125-3.84375 6.65625-6.75 11.0625-8.8125" fill="#F5BD0C" p-id="1315"></path><path d="M275.1875 666.125c4.59375-1.78125 9.5625-2.25 14.4375-1.3125 4.875 0.9375 9.46875 2.90625 13.5 5.71875 7.78125 5.90625 14.53125 13.21875 19.875 21.375 13.21875 18.1875 25.875 36.75 37.40625 56.0625 9.375 15.65625 17.90625 31.78125 28.6875 46.5 7.03125 9.5625 15 18.46875 22.125 28.03125 7.40625 9.375 13.03125 20.0625 16.5 31.40625 4.125 15.09375 2.4375 31.125-4.59375 45.09375-5.0625 9.75-12.65625 17.90625-21.9375 23.53125-9.375 5.625-20.15625 8.4375-31.125 8.15625-17.25-2.34375-33.9375-7.59375-49.3125-15.5625-32.71875-13.03125-68.25-17.15625-102-27.28125-10.40625-3.09375-20.53125-6.84375-31.03125-9.65625-4.6875-1.125-9.28125-2.53125-13.78125-4.40625-4.40625-1.875-8.25-5.0625-10.78125-9.09375-1.875-3.28125-2.8125-7.03125-2.71875-10.78125 0.09375-3.75 0.84375-7.40625 2.15625-10.78125 2.53125-7.03125 6.65625-13.3125 9.375-20.25 4.125-11.4375 5.71875-23.71875 4.6875-35.8125-0.5625-12.09375-2.71875-24.09375-3.375-36.28125-0.5625-5.4375-0.375-10.875 0.5625-16.21875 1.40625-10.6875 9.75-19.21875 20.53125-20.8125 4.96875-0.84375 9.9375-1.21875 14.90625-0.9375 4.96875 0.28125 10.03125 0.28125 15 0 4.96875-0.28125 9.9375-1.6875 14.34375-4.03125 4.03125-2.4375 7.59375-5.8125 10.3125-9.75 2.71875-3.9375 5.15625-7.96875 7.40625-12.1875 2.25-4.21875 4.78125-8.15625 7.78125-11.90625 2.8125-3.84375 6.65625-6.84375 11.0625-8.8125" fill="#F5BD0C" p-id="1316"></path><path d="M282.40625 674c4.125-1.59375 8.71875-1.875 13.03125-0.84375s8.34375 3 11.8125 5.8125c6.65625 5.8125 12.28125 12.75 16.5 20.53125 11.25 18.1875 22.21875 36.5625 32.4375 55.3125 7.40625 14.34375 15.75 28.21875 24.9375 41.4375 6.375 8.625 13.6875 16.5 20.25 24.9375 6.84375 8.34375 12 17.8125 15.1875 28.03125 3.75 13.40625 2.15625 27.75-4.21875 40.21875-4.6875 8.8125-11.71875 16.21875-20.34375 21.1875-8.625 5.0625-18.5625 7.5-28.5 7.03125-15.65625-2.4375-30.84375-7.125-45.1875-13.96875-28.5-10.40625-59.53125-11.71875-88.78125-19.875-10.5-2.8125-20.71875-6.65625-31.3125-9.28125-4.6875-1.03125-9.375-2.34375-13.875-4.03125-4.5-1.6875-8.4375-4.875-11.0625-8.90625-1.6875-3.1875-2.53125-6.75-2.34375-10.3125 0.1875-3.5625 0.9375-7.125 2.25-10.5 2.53125-6.65625 6.5625-12.75 9.09375-19.40625 3.5625-10.3125 4.78125-21.1875 3.65625-32.0625-0.75-10.78125-2.71875-21.46875-3.28125-32.34375-0.375-4.78125-0.1875-9.65625 0.65625-14.4375 0.84375-4.78125 3.09375-9.1875 6.46875-12.75 3.9375-3.5625 8.8125-5.90625 14.0625-6.5625 5.25-0.65625 10.5-0.65625 15.65625 0 5.25 0.65625 10.5 0.84375 15.75 0.75 10.3125 0 19.6875-6 24.09375-15.375 2.15625-4.21875 4.03125-8.625 5.53125-13.03125 1.59375-4.5 3.75-8.71875 6.28125-12.75 2.625-4.03125 6.375-7.21875 10.78125-9.09375" fill="#F5BD0C" p-id="1317"></path></svg>