<?xml version="1.0" standalone="no"?><!DOCTYPE svg PUBLIC "-//W3C//DTD SVG 1.1//EN" "http://www.w3.org/Graphics/SVG/1.1/DTD/svg11.dtd"><svg t="1713615091771" class="icon" viewBox="0 0 1024 1024" version="1.1" xmlns="http://www.w3.org/2000/svg" p-id="954" width="150" height="150" xmlns:xlink="http://www.w3.org/1999/xlink"><path d="M746.91986015 308.69276445c-136.76796839 0-248.04647822 111.27850983-248.04647823 248.04647822 0 121.01343763-98.44963555 219.46307318-219.46307317 219.46307318S59.94723555 677.7526803 59.94723555 556.73924267s98.44963555-219.46307318 219.4630732-219.46307319c7.89668347 0 14.29170252-6.39501906 14.2917025-14.29170251a14.23992098 14.23992098 0 0 0-0.85439525-4.82862777V244.28948543h96.6113912c7.89668347 0 14.29170252-6.39501906 14.29170253-14.29170252s-6.39501906-14.29170252-14.29170253-14.29170252h-222.6605827c-7.89668347 0-14.29170252 6.39501906-14.29170253 14.29170252s6.39501906 14.29170252 14.29170253 14.29170252h97.46578647v64.88225818c-129.75157097 7.85784731-232.90038045 115.88706608-232.90038045 247.56749906 0 136.76796839 111.27850983 248.04647822 248.04647823 248.04647822s248.04647822-111.27850983 248.04647822-248.04647822c0-121.01343763 98.44963555-219.46307318 219.46307318-219.46307319S966.38293333 435.72580503 966.38293333 556.73924267c0 7.89668347 6.39501906 14.29170252 14.29170252 14.29170251s14.29170252-6.39501906 14.29170252-14.29170251c0-136.76796839-111.26556445-248.04647822-248.04647822-248.04647822z" fill="#000000" p-id="955"></path><path d="M142.91419339 543.30193541c-7.89668347 0-14.29170252 6.39501906-14.29170253 14.29170251s6.39501906 14.29170252 14.29170253 14.29170253h255.07582103c7.89668347 0 14.29170252-6.39501906 14.29170252-14.29170253s-6.39501906-14.29170252-14.29170252-14.29170251H142.91419339zM874.74256909 570.18949531c7.89668347 0 14.29170252-6.39501906 14.29170252-14.29170251 0-7.89668347-6.39501906-14.29170252-14.29170252-14.29170253H638.43755298c-7.89668347 0-14.29170252 6.39501906-14.29170251 14.29170253 0 7.89668347 6.39501906 14.29170252 14.29170251 14.29170251h236.30501611zM929.34619339 766.81691339h-107.60202114l49.6584881-154.51608811c2.42078657-7.52126736-1.7217359-15.56035003-9.23005788-17.98113659-7.52126736-2.40784118-15.56035003 1.7217359-17.9811366 9.23005788l-52.48058152 163.26716682h-13.13956346L726.75095387 605.59511703c-2.42078657-7.50832197-10.45986924-11.65084445-17.98113659-9.23005786-7.52126736 2.42078657-11.65084445 10.47281461-9.23005787 17.98113658l49.01121896 152.48366301H720.8090232L668.98865619 605.59511703c-2.40784118-7.52126736-10.45986924-11.65084445-17.98113658-9.23005786-7.52126736 2.42078657-11.65084445 10.47281461-9.23005788 17.98113658l49.01121896 152.48366301h-106.954752c-7.89668347 0-14.29170252 6.39501906-14.29170252 14.29170252s6.39501906 14.29170252 14.29170252 14.29170253h345.49931931c7.89668347 0 14.29170252-6.39501906 14.29170252-14.29170253s-6.38207369-14.3046479-14.27875713-14.30464789zM614.48859497 222.26938943c-0.46603378 0.72494143-0.88028603 1.48871902-1.2039206 2.29133274-0.02589076 0.06472691-0.05178153 0.12945383-0.07767229 0.20712613-0.31068918 0.78966835-0.55665147 1.61817283-0.72494144 2.45962272-0.01294539 0.05178153-0.01294539 0.10356306-0.02589077 0.15534459-0.15534459 0.85439525-0.24596227 1.7217359-0.24596226 2.6149673V293.13241442c0 7.89668347 6.39501906 14.29170252 14.29170252 14.29170252s14.29170252-6.39501906 14.29170251-14.29170252v-28.62224118l36.73899616 36.73899615c2.78325728 2.79620267 6.44680059 4.18135861 10.11034389 4.18135861s7.31414124-1.39810133 10.1103439-4.18135861c5.57945995-5.57945995 5.57945995-14.62828247 0-20.20774242L661.00135506 244.28948543h81.51707497c7.89668347 0 14.29170252-6.39501906 14.2917025-14.29170252s-6.39501906-14.29170252-14.2917025-14.29170252h-116.02946528c-0.9061768 0-1.78646282 0.09061769-2.64085808 0.25890766-0.03883615 0.01294539-0.09061769 0.01294539-0.12945384 0.02589077-0.85439525 0.16828997-1.69584514 0.42719763-2.48551347 0.73788681-0.06472691 0.02589076-0.11650845 0.03883615-0.18123536 0.0647269-0.81555911 0.33657995-1.57933669 0.75083219-2.3172235 1.21686599-0.05178153 0.03883615-0.11650845 0.06472691-0.16828998 0.10356306-0.78966835 0.51781531-1.51460978 1.11330291-2.1748243 1.77351744l-0.01294539 0.01294537-0.01294536 0.01294539c-0.66021452 0.66021452-1.25570213 1.39810133-1.77351744 2.1748243-0.03883615 0.05178153-0.06472691 0.11650845-0.10356306 0.18123535zM783.60707476 305.71532642c7.89668347 0 14.29170252-6.39501906 14.29170252-14.29170252V262.80138272l36.73899615 36.73899614c2.78325728 2.79620267 6.44680059 4.18135861 10.1103439 4.18135862 3.66354331 0 7.31414124-1.39810133 10.11034391-4.18135862 5.57945995-5.57945995 5.57945995-14.62828247 0-20.20774241l-36.73899615-36.73899615h81.51707496c7.89668347 0 14.29170252-6.39501906 14.29170252-14.29170252s-6.39501906-14.29170252-14.29170252-14.29170253h-116.02946529c-0.9061768 0-1.78646282 0.09061769-2.64085807 0.25890766-0.03883615 0.01294539-0.09061769 0.01294539-0.12945383 0.02589078-0.85439525 0.16828997-1.68289975 0.42719763-2.48551347 0.73788681-0.06472691 0.02589076-0.11650845 0.03883615-0.18123536 0.06472691-0.81555911 0.33657995-1.59228208 0.75083219-2.31722351 1.21686598-0.05178153 0.03883615-0.10356306 0.06472691-0.1553446 0.09061767-1.57933669 1.048576-2.93860187 2.40784118-4.00012325 4.00012325-0.03883615 0.05178153-0.06472691 0.10356306-0.09061769 0.1553446a14.11046717 14.11046717 0 0 0-1.21686596 2.31722351c-0.02589076 0.06472691-0.03883615 0.11650845-0.06472692 0.18123536-0.31068918 0.80261373-0.56959683 1.61817283-0.73788682 2.48551347-0.01294539 0.05178153-0.01294539 0.09061769-0.02589076 0.14239922-0.15534459 0.85439525-0.24596227 1.73468128-0.24596227 2.6279127v63.1346315c0 7.87079269 6.39501906 14.26581175 14.29170251 14.26581175z" fill="#000000" p-id="956"></path></svg>